<?xml version="1.0" encoding="utf-8"?>
<svg width="48" height="48" xmlns="http://www.w3.org/2000/svg">
  <g fill-rule="evenodd" transform="translate(0 -1004.362)">
    <circle cx="24" cy="1028.362" r="24" style="fill: #4ab819;"/>
    <path d="M18.226 1019.362a6.19 6.19 0 0 0-4.398 1.836 6.245 6.245 0 0 0 0 8.828l.878.885 8.797 8.828 8.797-8.828.88-.885a6.245 6.245 0 0 0 0-8.828 6.19 6.19 0 0 0-8.798 0l-.879.883-.879-.883a6.19 6.19 0 0 0-4.398-1.836zm.027 1.506a.5.5 0 1 1 0 1 3.749 3.749 0 0 0-3.248 5.625.5.5 0 1 1-.865.5 4.752 4.752 0 0 1 4.113-7.125z" fill="#fff"/>
  </g>
</svg>